<svg width="16" height="19" viewBox="0 0 16 19" fill="none" xmlns="http://www.w3.org/2000/svg">
<g id="Frame" clip-path="url(#clip0_61_343)">
<path id="Vector" d="M8.00011 0C7.36797 0 6.85725 0.530664 6.85725 1.1875V1.9C4.25011 2.44922 2.28582 4.84648 2.28582 7.71875V8.41641C2.28582 10.1605 1.66797 11.8453 0.553681 13.1516L0.289396 13.4596C-0.0106045 13.8084 -0.0820331 14.3094 0.10011 14.7361C0.282253 15.1629 0.692967 15.4375 1.14297 15.4375H14.8573C15.3073 15.4375 15.7144 15.1629 15.9001 14.7361C16.0858 14.3094 16.0108 13.8084 15.7108 13.4596L15.4465 13.1516C14.3323 11.8453 13.7144 10.1643 13.7144 8.41641V7.71875C13.7144 4.84648 11.7501 2.44922 9.14297 1.9V1.1875C9.14297 0.530664 8.63225 0 8.00011 0ZM9.61797 18.3061C10.0465 17.8607 10.2858 17.2559 10.2858 16.625H8.00011H5.7144C5.7144 17.2559 5.95368 17.8607 6.38225 18.3061C6.81082 18.7514 7.39297 19 8.00011 19C8.60725 19 9.1894 18.7514 9.61797 18.3061Z" fill="#26C666"/>
</g>
<defs>
<clipPath id="clip0_61_343">
<rect width="16" height="19" fill="white"/>
</clipPath>
</defs>
</svg>
