<svg viewBox="0 0 16 16" fill="none" preserveAspectRatio="xMidYMid meet" xmlns="http://www.w3.org/2000/svg">
<g id="Frame" clip-path="url(#clip0_66_4148)">
<g id="Group">
<path id="Vector" d="M9.19674 11.1055C9.15672 11.3517 9.09215 11.5932 9.00399 11.8265L9.78674 12.5358C9.67846 12.7661 9.55171 12.9873 9.40774 13.1973L8.40274 12.8733C8.24422 13.0669 8.06676 13.2443 7.87299 13.4028L8.19699 14.4078C7.98702 14.5516 7.7658 14.6784 7.53549 14.7867L6.82624 14.004C6.59574 14.0912 6.35499 14.156 6.10524 14.1967L5.88199 15.2308C5.75574 15.2408 5.62899 15.25 5.49999 15.25C5.37099 15.25 5.24424 15.2408 5.11774 15.2308L4.89449 14.1967C4.64833 14.1567 4.40679 14.0922 4.17349 14.004L3.46424 14.7867C3.23388 14.6785 3.01266 14.5517 2.80274 14.4078L3.12674 13.4028C2.93312 13.2443 2.75574 13.0669 2.59724 12.8733L1.59224 13.1973C1.44837 12.9873 1.32163 12.7661 1.21324 12.5358L1.99599 11.8265C1.9078 11.5932 1.84323 11.3517 1.80324 11.1055L0.769243 10.8822C0.759243 10.7557 0.749993 10.629 0.749993 10.5C0.749993 10.371 0.759243 10.2443 0.769243 10.1178L1.80324 9.8945C1.84326 9.64833 1.90783 9.4068 1.99599 9.1735L1.21324 8.46425C1.32299 8.23325 1.44799 8.01125 1.59224 7.80275L2.59724 8.12675C2.75577 7.93306 2.93323 7.75568 3.12699 7.59725L2.80299 6.59225C3.01297 6.44838 3.23418 6.32163 3.46449 6.21325L4.17374 6.996C4.40703 6.90781 4.64857 6.84324 4.89474 6.80325L5.11799 5.76925C5.24424 5.75925 5.37099 5.75 5.49999 5.75C5.62899 5.75 5.75574 5.75925 5.88224 5.76925L6.10549 6.80325C6.35166 6.84327 6.5932 6.90784 6.82649 6.996L7.53574 6.21325C7.76674 6.323 7.98874 6.448 8.19724 6.59225L7.87324 7.59725C8.06693 7.75577 8.24431 7.93324 8.40274 8.127L9.40774 7.803C9.55162 8.01298 9.67836 8.23419 9.78674 8.4645L9.00399 9.17375C9.09124 9.40425 9.15599 9.645 9.19674 9.89475L10.2307 10.118C10.2407 10.2443 10.25 10.371 10.25 10.5C10.25 10.629 10.2407 10.7557 10.2307 10.8822L9.19674 11.1055ZM5.49999 8C4.11924 8 2.99999 9.11925 2.99999 10.5C2.99999 11.8807 4.11924 13 5.49999 13C6.88074 13 7.99999 11.8807 7.99999 10.5C7.99999 9.11925 6.88074 8 5.49999 8ZM12.6647 4.07625C12.6263 4.20437 12.5751 4.32832 12.512 4.44625L12.9067 5.20275C12.7736 5.37111 12.6214 5.52339 12.453 5.6565L11.6965 5.26175C11.5787 5.3251 11.4547 5.37628 11.3265 5.4145L11.0705 6.2295C10.965 6.242 10.8585 6.25 10.75 6.25C10.6415 6.25 10.535 6.242 10.4297 6.22975L10.1737 5.41475C10.0456 5.37642 9.92162 5.32524 9.80374 5.262L9.04724 5.65675C8.87888 5.52364 8.7266 5.37136 8.59349 5.203L8.98824 4.4465C8.9249 4.32867 8.87371 4.2047 8.83549 4.0765L8.02049 3.8205C8.00799 3.715 7.99999 3.6085 7.99999 3.5C7.99999 3.3915 8.00799 3.285 8.02024 3.17975L8.83524 2.92375C8.87399 2.7945 8.92524 2.6705 8.98799 2.55375L8.59324 1.79725C8.72635 1.62889 8.87863 1.47661 9.04699 1.3435L9.80349 1.73825C9.92132 1.6749 10.0453 1.62372 10.1735 1.5855L10.4295 0.7705C10.535 0.758 10.6415 0.75 10.75 0.75C10.8585 0.75 10.965 0.758 11.0702 0.77025L11.3262 1.58525C11.4555 1.624 11.5795 1.67525 11.6962 1.738L12.4527 1.34325C12.6211 1.47636 12.7734 1.62864 12.9065 1.797L12.5117 2.5535C12.5747 2.67025 12.6257 2.79425 12.6645 2.9235L13.4795 3.1795C13.492 3.285 13.5 3.3915 13.5 3.5C13.5 3.6085 13.492 3.715 13.4797 3.82025L12.6647 4.07625ZM10.75 2.5C10.4848 2.5 10.2304 2.60536 10.0429 2.79289C9.85535 2.98043 9.74999 3.23478 9.74999 3.5C9.74999 3.76522 9.85535 4.01957 10.0429 4.20711C10.2304 4.39464 10.4848 4.5 10.75 4.5C11.0152 4.5 11.2696 4.39464 11.4571 4.20711C11.6446 4.01957 11.75 3.76522 11.75 3.5C11.75 3.23478 11.6446 2.98043 11.4571 2.79289C11.2696 2.60536 11.0152 2.5 10.75 2.5ZM14.6847 9.71775C14.6469 9.85489 14.5924 9.98688 14.5225 10.1108L14.7712 10.6342C14.6583 10.7784 14.5284 10.9083 14.3842 11.0212L13.8607 10.7725C13.7369 10.8425 13.6049 10.897 13.4677 10.9347L13.2732 11.4817C13.1835 11.4927 13.0927 11.5 13 11.5C12.9072 11.5 12.8165 11.4927 12.7267 11.4817L12.5322 10.9347C12.3951 10.8969 12.2631 10.8424 12.1392 10.7725L11.6157 11.0212C11.4716 10.9083 11.3416 10.7784 11.2287 10.6342L11.4775 10.1108C11.4075 9.98696 11.3531 9.85506 11.3152 9.718L10.7682 9.5235C10.7572 9.4335 10.75 9.34275 10.75 9.25C10.75 9.15725 10.7572 9.0665 10.7682 8.97675L11.3152 8.78225C11.353 8.64517 11.4075 8.51327 11.4775 8.3895L11.2287 7.866C11.3416 7.72185 11.4716 7.5919 11.6157 7.479L12.1392 7.72775C12.2631 7.65776 12.3951 7.60327 12.5322 7.5655L12.7267 7.0185C12.8165 7.00725 12.9072 7 13 7C13.0927 7 13.1835 7.00725 13.2732 7.01825L13.4677 7.56525C13.6049 7.60306 13.7369 7.65755 13.8607 7.7275L14.3842 7.47875C14.5284 7.59165 14.6583 7.7216 14.7712 7.86575L14.5225 8.38925C14.592 8.51175 14.6462 8.6435 14.6847 8.78225L15.2317 8.97675C15.2427 9.0665 15.25 9.15725 15.25 9.25C15.25 9.34275 15.2427 9.4335 15.2317 9.52325L14.6847 9.71775ZM13 8.5C12.8011 8.5 12.6103 8.57902 12.4697 8.71967C12.329 8.86032 12.25 9.05109 12.25 9.25C12.25 9.44891 12.329 9.63968 12.4697 9.78033C12.6103 9.92098 12.8011 10 13 10C13.1989 10 13.3897 9.92098 13.5303 9.78033C13.671 9.63968 13.75 9.44891 13.75 9.25C13.75 9.05109 13.671 8.86032 13.5303 8.71967C13.3897 8.57902 13.1989 8.5 13 8.5ZM15.299 1.255L13.8037 0.956L13.5047 2.451L13.995 2.54925L14.1297 1.87625C14.3733 2.38292 14.4998 2.93784 14.5 3.5C14.5033 4.35255 14.2128 5.18021 13.6775 5.84375L14.0677 6.1565C14.6704 5.40215 14.9991 4.46553 15 3.5C15 2.84525 14.8487 2.19975 14.561 1.61725L15.201 1.74525L15.299 1.255ZM5.92674 3.32325L5.57324 3.67675L5.91299 4.0165C5.77554 4.00663 5.6378 4.00113 5.49999 4C4.54671 3.99905 3.60494 4.20822 2.74169 4.61262C1.87844 5.01702 1.11493 5.60672 0.505493 6.33975L0.889493 6.66C1.45205 5.98329 2.15684 5.43889 2.95373 5.06556C3.75061 4.69222 4.61999 4.49912 5.49999 4.5C5.62724 4.5 5.75424 4.50725 5.88124 4.51525L5.57324 4.82325L5.92674 5.17675L6.85349 4.25L5.92674 3.32325Z" fill="currentColor"/>
</g>
</g>
<defs>
<clipPath id="clip0_66_4148">
<rect width="16" height="16" fill="white"/>
</clipPath>
</defs>
</svg>
