<svg viewBox="0 0 14 14" fill="none" preserveAspectRatio="xMidYMid meet" xmlns="http://www.w3.org/2000/svg">
<g id="Frame" clip-path="url(#clip0_65_1195)">
<g id="Group">
<path id="Vector" d="M13.268 6.44192L13.2681 6.442L13.2686 6.44249C13.2687 6.44257 13.2688 6.44265 13.2688 6.44273C13.5753 6.75011 13.5751 7.2507 13.2684 7.55779C13.1185 7.70766 12.922 7.78898 12.7105 7.78898H12.4994H11.9994V8.28898V12.4917C11.9994 13.0472 11.5467 13.5 10.9909 13.5H8.84647V10.2949C8.84647 9.63933 8.31398 9.10673 7.65828 9.10673H6.34045C5.68483 9.10673 5.15224 9.63925 5.15224 10.2949V13.5H3.00782C2.45207 13.5 1.99932 13.0472 1.99932 12.4917V8.28896V7.78896H1.49932H1.27596L1.2671 7.78809L1.25343 7.7875C1.05474 7.77897 0.870762 7.69816 0.730409 7.55773L0.730303 7.55762C0.423791 7.25111 0.423161 6.7512 0.728844 6.44378L0.730324 6.44229L0.735047 6.43744L6.44151 0.731148L6.44153 0.731123C6.59129 0.58135 6.78774 0.5 6.99938 0.5C7.21091 0.5 7.40734 0.581375 7.55704 0.731153L7.55714 0.731259L13.268 6.44192Z" stroke="currentColor"/>
</g>
</g>
<defs>
<clipPath id="clip0_65_1195">
<rect width="14" height="14" fill="white"/>
</clipPath>
</defs>
</svg>
