<svg width="181" height="24" viewBox="0 0 181 24" fill="none" xmlns="http://www.w3.org/2000/svg">
<g id="Clip path group">
<mask id="mask0_61_323" style="mask-type:luminance" maskUnits="userSpaceOnUse" x="0" y="0" width="181" height="24">
<g id="clip0_1278_6384">
<path id="Vector" d="M180.753 0H0V23.2466H180.753V0Z" fill="white"/>
</g>
</mask>
<g mask="url(#mask0_61_323)">
<g id="Group">
<path id="Vector_2" d="M77.5607 18.3735V3.67969H80.7119L85.3364 12.999L89.8995 3.67969H93.0507V18.3735H90.3988V8.2337L86.3555 16.2727H84.26L80.2167 8.2337V18.3735H77.5648H77.5607Z" fill="white"/>
<path id="Vector_3" d="M97.2375 6.34811C96.7543 6.34811 96.3572 6.20308 96.0462 5.90887C95.7353 5.61466 95.5798 5.24587 95.5798 4.79834C95.5798 4.35081 95.7353 3.98202 96.0462 3.69609C96.3572 3.41017 96.7543 3.26514 97.2375 3.26514C97.7208 3.26514 98.1169 3.41017 98.4288 3.69609C98.7397 3.98202 98.8952 4.35081 98.8952 4.79834C98.8952 5.24587 98.7397 5.6188 98.4288 5.90887C98.1169 6.20308 97.7208 6.34811 97.2375 6.34811ZM95.9114 18.3775V7.96419H98.5637V18.3775H95.9114Z" fill="white"/>
<path id="Vector_4" d="M101.343 18.3734V7.96003H103.683L103.892 9.72116C104.211 9.10372 104.669 8.61476 105.271 8.2501C105.873 7.88544 106.581 7.70312 107.395 7.70312C108.668 7.70312 109.654 8.10921 110.358 8.9214C111.062 9.73361 111.414 10.9229 111.414 12.4892V18.3651H108.762V12.7378C108.762 11.8427 108.582 11.1549 108.221 10.6825C107.862 10.2059 107.301 9.96982 106.544 9.96982C105.786 9.96982 105.185 10.235 104.71 10.7654C104.232 11.2958 103.994 12.0375 103.994 12.9906V18.3651H101.343V18.3734Z" fill="white"/>
<path id="Vector_5" d="M118.674 18.6264C117.709 18.6264 116.84 18.3902 116.084 17.9137C115.322 17.4371 114.721 16.7866 114.279 15.9619C113.837 15.1373 113.616 14.2008 113.616 13.1483C113.616 12.0957 113.837 11.1635 114.279 10.3471C114.721 9.52667 115.322 8.88434 116.084 8.41609C116.844 7.94784 117.709 7.71165 118.674 7.71165C119.448 7.71165 120.127 7.85668 120.704 8.15089C121.285 8.4451 121.755 8.85947 122.111 9.38989V3.26123H124.764V18.3736H122.402L122.111 16.8819C121.78 17.3418 121.342 17.7479 120.794 18.1002C120.246 18.4524 119.541 18.6264 118.669 18.6264H118.674ZM119.234 16.2769C120.09 16.2769 120.794 15.9867 121.338 15.4067C121.883 14.8265 122.156 14.0806 122.156 13.169C122.156 12.2574 121.883 11.5157 121.338 10.9314C120.794 10.3512 120.09 10.0612 119.234 10.0612C118.379 10.0612 117.692 10.3471 117.139 10.9231C116.587 11.4991 116.308 12.2366 116.308 13.1483C116.308 14.0599 116.583 14.8058 117.139 15.3942C117.692 15.9826 118.391 16.2769 119.234 16.2769Z" fill="white"/>
<path id="Vector_6" d="M127.939 18.3736V10.2062H126.527V7.96028H127.939V6.74201C127.939 5.48229 128.254 4.58724 128.881 4.05684C129.511 3.52643 130.362 3.26123 131.442 3.26123H132.585V5.54859H131.86C131.405 5.54859 131.079 5.63976 130.886 5.82208C130.694 6.00441 130.595 6.31105 130.595 6.74614V7.96442H132.813V10.2104H130.595V18.3777H127.943L127.939 18.3736Z" fill="white"/>
<path id="Vector_7" d="M139.427 18.6262C138.432 18.6262 137.536 18.3941 136.742 17.9341C135.949 17.47 135.318 16.8319 134.856 16.0114C134.393 15.1909 134.16 14.2462 134.16 13.1688C134.16 12.0914 134.393 11.1424 134.864 10.3262C135.334 9.50566 135.965 8.86754 136.759 8.40344C137.553 7.94348 138.449 7.71143 139.443 7.71143C140.438 7.71143 141.313 7.94348 142.107 8.40344C142.902 8.86754 143.532 9.50566 143.995 10.3262C144.456 11.1467 144.689 12.0914 144.689 13.1688C144.689 14.2462 144.456 15.1951 143.995 16.0114C143.532 16.8277 142.897 17.47 142.099 17.9341C141.297 18.3941 140.405 18.6262 139.423 18.6262H139.427ZM139.427 16.2973C140.118 16.2973 140.72 16.0363 141.232 15.51C141.743 14.9837 141.997 14.2047 141.997 13.1688C141.997 12.1329 141.743 11.3538 141.232 10.8276C140.72 10.3013 140.127 10.0402 139.448 10.0402C138.768 10.0402 138.137 10.3013 137.634 10.8276C137.131 11.3538 136.878 12.1329 136.878 13.1688C136.878 14.2047 137.131 14.9837 137.634 15.51C138.137 16.0363 138.735 16.2973 139.427 16.2973Z" fill="white"/>
<path id="Vector_8" d="M147.055 18.3736V7.96029H149.421L149.671 9.91203C150.043 9.24076 150.55 8.70617 151.193 8.30423C151.835 7.90228 152.593 7.70752 153.464 7.70752V10.5419H152.719C152.139 10.5419 151.619 10.633 151.165 10.8154C150.711 10.9977 150.354 11.3126 150.096 11.7601C149.842 12.2076 149.711 12.8293 149.711 13.629V18.3736H147.06H147.055Z" fill="white"/>
<path id="Vector_9" d="M159.37 15.2699C158.871 15.2699 158.408 15.2161 157.982 15.1001L157.217 15.8749C157.45 15.9992 157.769 16.107 158.17 16.1898C158.572 16.2727 159.222 16.3597 160.118 16.4426C161.485 16.5669 162.484 16.8984 163.102 17.4288C163.72 17.9593 164.035 18.6968 164.035 19.6333C164.035 20.2508 163.867 20.835 163.535 21.3862C163.204 21.9373 162.693 22.3848 162.001 22.7287C161.309 23.0727 160.425 23.2425 159.349 23.2425C157.884 23.2425 156.702 22.9649 155.805 22.4138C154.904 21.8627 154.458 21.0298 154.458 19.9276C154.458 18.9911 154.909 18.1788 155.805 17.491C155.527 17.3666 155.289 17.2341 155.089 17.0932C154.888 16.9523 154.712 16.8073 154.561 16.6539V16.1691L156.365 14.2381C155.564 13.5254 155.163 12.6096 155.163 11.4866C155.163 10.7864 155.33 10.1524 155.67 9.57639C156.009 9.00453 156.488 8.54871 157.111 8.21307C157.733 7.87742 158.486 7.70752 159.37 7.70752C159.95 7.70752 160.491 7.79039 160.986 7.96029H164.882V9.59708L163.119 9.72141C163.392 10.2518 163.532 10.8402 163.532 11.4866C163.532 12.1869 163.364 12.8251 163.033 13.3969C162.701 13.9687 162.222 14.4246 161.592 14.7602C160.962 15.0959 160.221 15.2658 159.361 15.2658L159.37 15.2699ZM156.881 19.6582C156.881 20.1761 157.118 20.5657 157.598 20.8226C158.076 21.0795 158.657 21.2122 159.349 21.2122C160.04 21.2122 160.553 21.0754 160.966 20.8019C161.379 20.5283 161.587 20.1638 161.587 19.6996C161.587 19.3226 161.453 19.0076 161.183 18.7549C160.912 18.5021 160.377 18.3487 159.574 18.2949C159.009 18.2534 158.482 18.1913 157.999 18.1043C157.598 18.328 157.311 18.5725 157.139 18.8377C156.967 19.103 156.881 19.3764 156.881 19.6582ZM159.37 13.2146C159.91 13.2146 160.356 13.0696 160.708 12.7754C161.06 12.4812 161.235 12.0626 161.235 11.5157C161.235 10.9686 161.06 10.5502 160.708 10.256C160.356 9.96174 159.91 9.81672 159.37 9.81672C158.805 9.81672 158.346 9.96174 158.002 10.256C157.659 10.5502 157.483 10.9686 157.483 11.5157C157.483 12.0626 157.655 12.4812 158.002 12.7754C158.346 13.0696 158.805 13.2146 159.37 13.2146Z" fill="white"/>
<path id="Vector_10" d="M171.393 18.6264C170.358 18.6264 169.438 18.4027 168.635 17.9551C167.833 17.5075 167.203 16.8778 166.749 16.0655C166.29 15.2533 166.065 14.3168 166.065 13.2519C166.065 12.1869 166.29 11.2173 166.74 10.3761C167.191 9.53492 167.813 8.88021 168.607 8.41197C169.4 7.94372 170.338 7.70752 171.414 7.70752C172.421 7.70752 173.313 7.93128 174.09 8.37881C174.868 8.82634 175.47 9.43961 175.904 10.2145C176.337 10.9894 176.558 11.8554 176.558 12.8085C176.558 12.9618 176.558 13.1234 176.546 13.2934C176.534 13.4633 176.529 13.6372 176.513 13.8196H168.697C168.749 14.6318 169.032 15.2699 169.535 15.7299C170.039 16.1898 170.652 16.4219 171.369 16.4219C171.909 16.4219 172.36 16.2976 172.728 16.0531C173.096 15.8086 173.366 15.4895 173.546 15.1001H176.239C176.047 15.7589 175.724 16.3556 175.273 16.8943C174.823 17.433 174.27 17.8556 173.616 18.1622C172.961 18.4689 172.216 18.6222 171.386 18.6222L171.393 18.6264ZM171.414 9.89546C170.763 9.89546 170.191 10.082 169.695 10.4507C169.196 10.8236 168.88 11.3831 168.742 12.1413H173.861C173.821 11.4576 173.571 10.9107 173.116 10.5046C172.662 10.0985 172.094 9.89546 171.418 9.89546H171.414Z" fill="white"/>
<path id="Vector_11" d="M176.82 6.70858V5.07179H176.321V4.62012H177.893V5.07179H177.381V6.70858H176.824H176.82ZM178.195 6.70858V4.62012H178.936L179.476 6.04143L180.066 4.62012H180.753V6.70858H180.237L180.225 5.34113L179.656 6.70858H179.268L178.698 5.29141V6.70858H178.199H178.195Z" fill="white"/>
<path id="Vector_12" d="M39.8813 0H26.7198V21.5353H39.8813V0Z" fill="#26C666"/>
<path id="Vector_13" d="M0 21.5353H18.6127L39.8813 0H21.2686L0 21.5353Z" fill="#26C666"/>
<path id="Vector_14" d="M55.7151 13.2725C55.7929 8.39528 53.3046 7.3096 50.5013 4.11475L33.3005 21.5311H51.9131L60.0695 13.2725H55.7151Z" fill="#26C666"/>
<path id="Vector_15" fill-rule="evenodd" clip-rule="evenodd" d="M55.6825 13.2725V15.245V16.5917V18.4191V21.5352H68.6517V18.4191V16.5917V15.245V13.2725H55.6825Z" fill="#26C666"/>
</g>
</g>
</g>
</svg>
