<svg viewBox="0 0 13 13" fill="none" preserveAspectRatio="xMidYMid meet" xmlns="http://www.w3.org/2000/svg">
<g id="Frame" clip-path="url(#clip0_66_4151)">
<g id="Group">
<path id="Vector" d="M12.619 12.2382H12.2127V4.72265C12.2127 4.51232 12.0422 4.3418 11.8319 4.3418H10.3085C10.0981 4.3418 9.9276 4.51232 9.9276 4.72265V12.2382H9.16589V7.26168C9.16589 7.05135 8.99537 6.88083 8.78504 6.88083H7.26162C7.05129 6.88083 6.88077 7.05135 6.88077 7.26168V12.2382H6.11906V8.65814C6.11906 8.44781 5.94854 8.27729 5.7382 8.27729H4.21479C4.00445 8.27729 3.83393 8.44781 3.83393 8.65814V12.2382H3.07222V9.57219C3.07222 9.36186 2.9017 9.19134 2.69137 9.19134H1.16795C0.95762 9.19134 0.787099 9.36186 0.787099 9.57219V12.2382H0.380854C0.170521 12.2382 0 12.4087 0 12.619C0 12.8294 0.170521 12.9999 0.380854 12.9999H12.619C12.8293 12.9999 12.9998 12.8294 12.9998 12.619C12.9998 12.4087 12.8293 12.2382 12.619 12.2382Z" fill="currentColor"/>
<path id="Vector_2" d="M0.380854 8.18347C2.75784 8.18347 5.33551 7.3298 7.63907 5.77969C9.44318 4.56566 10.9471 3.01474 11.8812 1.42666L12.2511 2.80705C12.2967 2.97722 12.5169 3.12423 12.7176 3.07634C12.9222 3.02754 13.0413 2.81307 12.9868 2.60989L12.3632 0.282368C12.3087 0.0792205 12.1 -0.0413833 11.8967 0.0130788L9.56922 0.63674C9.36604 0.691177 9.24549 0.900012 9.29993 1.10319C9.35439 1.30636 9.56312 1.42696 9.76637 1.37247L11.2658 0.970699C10.3943 2.48513 8.95393 3.97676 7.21381 5.14773C5.03461 6.61417 2.60796 7.42176 0.380854 7.42176C0.170521 7.42176 0 7.59228 0 7.80261C0 8.01295 0.170521 8.18347 0.380854 8.18347Z" fill="currentColor"/>
</g>
</g>
<defs>
<clipPath id="clip0_66_4151">
<rect width="13" height="13" fill="white"/>
</clipPath>
</defs>
</svg>
