<svg viewBox="0 0 15 15" fill="none" preserveAspectRatio="xMidYMid meet" xmlns="http://www.w3.org/2000/svg">
<g id="Frame" clip-path="url(#clip0_66_4141)">
<g id="Group">
<path id="Vector" d="M11.0156 5.15625H13.5938V14.0625H2.8125V12.1875H5.625C5.68716 12.1875 5.74677 12.1628 5.79073 12.1189C5.83468 12.0749 5.85938 12.0153 5.85938 11.9531V9.84375H8.4375C8.49966 9.84375 8.55927 9.81906 8.60323 9.7751C8.64718 9.73115 8.67188 9.67154 8.67188 9.60938V7.5H10.7812C10.8434 7.5 10.903 7.47531 10.947 7.43135C10.9909 7.3874 11.0156 7.32779 11.0156 7.26562V5.15625ZM13.125 0.46875H12.1868C12.1284 0.468812 12.0721 0.490762 12.0291 0.530273L1.78438 9.84375H1.40625C1.34409 9.84375 1.28448 9.86844 1.24052 9.9124C1.19657 9.95635 1.17188 10.016 1.17188 10.0781C1.17188 10.1403 1.19657 10.1999 1.24052 10.2439C1.28448 10.2878 1.34409 10.3125 1.40625 10.3125H1.875C1.93331 10.3125 1.98952 10.2908 2.03268 10.2516L3.04688 9.32956V11.7188H3.51562V8.90625H3.51252L7.26562 5.49431V9.375H7.73438V5.06818L11.9531 1.23293V4.6875H12.4219V0.9375H13.125C13.1872 0.9375 13.2468 0.912807 13.2907 0.868853C13.3347 0.824899 13.3594 0.765285 13.3594 0.703125C13.3594 0.640965 13.3347 0.581351 13.2907 0.537397C13.2468 0.493443 13.1872 0.46875 13.125 0.46875ZM14.5312 14.2969C14.5312 14.2347 14.5066 14.1751 14.4626 14.1311C14.4186 14.0872 14.359 14.0625 14.2969 14.0625H1.17188C1.10971 14.0625 1.0501 14.0872 1.00615 14.1311C0.962193 14.1751 0.9375 14.2347 0.9375 14.2969C0.9375 14.359 0.962193 14.4186 1.00615 14.4626C1.0501 14.5066 1.10971 14.5312 1.17188 14.5312H14.2969C14.359 14.5312 14.4186 14.5066 14.4626 14.4626C14.5066 14.4186 14.5312 14.359 14.5312 14.2969Z" fill="currentColor"/>
</g>
</g>
<defs>
<clipPath id="clip0_66_4141">
<rect width="15" height="15" fill="white"/>
</clipPath>
</defs>
</svg>
