<svg width="17" height="17" viewBox="0 0 17 17" fill="none" xmlns="http://www.w3.org/2000/svg">
<g id="Frame">
<g id="Group">
<path id="Vector" d="M13.8603 3.13948C11.8937 1.09337 8.35818 1.09098 6.39362 3.13948C3.08234 6.4412 5.44852 12.1601 10.1256 12.1521C14.8145 12.1482 17.1692 6.46086 13.8603 3.13948ZM12.9599 9.9262C12.808 9.19023 12.373 8.54342 11.7486 8.12526C11.3828 8.47538 10.9136 8.6979 10.411 8.75965C9.90837 8.8214 9.39927 8.71907 8.95956 8.46792C8.7945 8.37302 8.64192 8.25792 8.50534 8.12526C7.88355 8.54533 7.44852 9.18979 7.29143 9.92355C7.25424 9.89167 7.21706 9.85714 7.17987 9.81995C4.55921 7.20647 6.46799 2.68526 10.1256 2.70917C13.8595 2.68765 15.7341 7.36212 12.9599 9.9262Z" fill="white"/>
<path id="Vector_2" d="M6.01638 10.9832C5.7178 10.6852 5.45239 10.3556 5.22482 10.0004L1.43169 13.7935C1.1964 14.0288 1.06421 14.3479 1.06421 14.6807C1.06421 15.0135 1.1964 15.3326 1.43169 15.5679C1.66699 15.8032 1.98612 15.9354 2.31888 15.9354C2.65164 15.9354 2.97077 15.8032 3.20607 15.5679L6.99919 11.7748C6.64394 11.5472 6.31441 11.2818 6.01638 10.9832ZM10.1256 4.63477C9.79144 4.63499 9.46388 4.72786 9.17932 4.90305C8.89476 5.07824 8.66435 5.32889 8.51367 5.62716C8.363 5.92542 8.29797 6.25962 8.3258 6.59262C8.35363 6.92562 8.47325 7.24439 8.67135 7.5135C8.86945 7.78261 9.13828 7.99153 9.44797 8.11705C9.75767 8.24257 10.0961 8.27977 10.4257 8.22451C10.7552 8.16926 11.063 8.02372 11.3148 7.80407C11.5667 7.58441 11.7527 7.29924 11.8522 6.98023C11.9353 6.70962 11.954 6.42328 11.9066 6.14417C11.8592 5.86505 11.7471 5.60091 11.5792 5.37292C11.4114 5.14492 11.1925 4.9594 10.9401 4.83122C10.6877 4.70303 10.4087 4.63575 10.1256 4.63477Z" fill="white"/>
</g>
</g>
</svg>
